{"title":"Happy Feet 2 2011 CAM XViD DTRG","uid":6850681,"size":1217620848,"categoryP":"video","categoryS":"movies","magnet":"?xt=urn:btih:2a8c6ff5bc3bc5bfd480481ed0a2869069189ec1&amp;dn=Happy+Feet+2+2011+CAM+XViD+DTRG&amp;tr=udp%3A%2F%2Ftracker.openbittorrent.com%3A80&amp;tr=udp%3A%2F%2Fopen.demonii.com%3A1337&amp;tr=udp%3A%2F%2Ftracker.coppersurfer.tk%3A6969&amp;tr=udp%3A%2F%2Fexodus.desync.com%3A6969","seeders":1,"leechers":0,"uploader":".BONE.","files":2,"time":1322510262,"description":"Format : AVI\nFormat/Info : Audio Video Interleave\nFile size : 1.13 GiB\nDuration : 1h 27mn\nOverall bit rate : 1 842 Kbps\nWriting library : VirtualDub build 32842/release\n\nVideo\nID : 0\nFormat : MPEG-4 Visual\nFormat profile : Advanced Simple@L5\nFormat settings, BVOP : 1\nFormat settings, QPel : No\nFormat settings, GMC : No warppoints\nFormat settings, Matrix : Default (H.263)\nMuxing mode : Packed bitstream\nCodec ID : XVID\nCodec ID/Hint : XviD\nDuration : 1h 27mn\nBit rate : 1 705 Kbps\nWidth : 624 pixels\nHeight : 262 pixels\nDisplay aspect ratio : 2.40:1\nFrame rate : 23.976 fps\nColor space : YUV\nChroma subsampling : 4:2:0\nBit depth : 8 bits\nScan type : Progressive\nCompression mode : Lossy\nBits/(Pixel*Frame) : 0.435\nStream size : 1.04 GiB (93%)\nWriting library : XviD 64\n\nAudio\nID : 1\nFormat : MPEG Audio\nFormat version : Version 1\nFormat profile : Layer 3\nCodec ID : 55\nCodec ID/Hint : MP3\nDuration : 1h 27mn\nBit rate mode : Constant\nBit rate : 128 Kbps\nChannel(s) : 2 channels\nSampling rate : 44.1 KHz\nCompression mode : Lossy\nStream size : 80.1 MiB (7%)\nAlignment : Split accross interleaves\nInterleave, duration : 42 ms (1.00 video frame)\nInterleave, preload duration : 500 ms\n\n &lt;a href=&quot;\nhttp://www.imdb.com/title/tt1402488/&quot; rel=&quot;nofollow&quot; target=&quot;_NEW&quot;&gt;\nhttp://www.imdb.com/title/tt1402488/&lt;/a&gt;\n\n\nRatings: 5.8/10 from 1,103 users Metascore: 50/100\nReviews: 27 user | 46 critic | 25 from Metacritic.com\n\nMumble's son, Erik, is struggling to realize his talents in the Emperor Penguin world. Meanwhile, Mumble and his family and friends discover a new threat their home -- one that will take everyone working together to save them.\nDirector:\nGeorge Miller\nWriters:\nGeorge Miller, Gary Eck, and 6 more credits Ã‚Â»\nStars:\nElijah Wood, Robin Williams and Pink\n &lt;a href=&quot;\nhttp://img337.imageshack.us/img337/7442/vlcsnap2011112807h08m06.png&quot; rel=&quot;nofollow&quot; target=&quot;_NEW&quot;&gt;\nhttp://img337.imageshack.us/img337/7442/vlcsnap2011112807h08m06.png&lt;/a&gt;\n &lt;a href=&quot;\nhttp://img220.imageshack.us/img220/1268/vlcsnap2011112807h50m25.png&quot; rel=&quot;nofollow&quot; target=&quot;_NEW&quot;&gt;\nhttp://img220.imageshack.us/img220/1268/vlcsnap2011112807h50m25.png&lt;/a&gt;\n &lt;a href=&quot;\nhttp://img855.imageshack.us/img855/6213/vlcsnap2011112807h08m15.png&quot; rel=&quot;nofollow&quot; target=&quot;_NEW&quot;&gt;\nhttp://img855.imageshack.us/img855/6213/vlcsnap2011112807h08m15.png&lt;/a&gt;\n &lt;a href=&quot;\nhttp://img717.imageshack.us/img717/4687/vlcsnap2011112807h08m47.png&quot; rel=&quot;nofollow&quot; target=&quot;_NEW&quot;&gt;\nhttp://img717.imageshack.us/img717/4687/vlcsnap2011112807h08m47.png&lt;/a&gt;\n\nSource Used\n\n\nFYA ................Thanks\n\n\n\nSource is from a 3D cam but its not so bad but check out the sample 1st .........\n\n\nFiltered the vid .......left the audio untouched\n\nEnjoy\n\n\n\n\n\nGreetz to IMAGiNE,Flawl3ss,EMBER,ETRG,BHRG,iLLUMiNATi,MiSTERE","torrent":{"xt":"urn:btih:2a8c6ff5bc3bc5bfd480481ed0a2869069189ec1","amp;dn":"Happy+Feet+2+2011+CAM+XViD+DTRG","amp;tr":["udp%3A%2F%2Ftracker.openbittorrent.com%3A80","udp%3A%2F%2Fopen.demonii.com%3A1337","udp%3A%2F%2Ftracker.coppersurfer.tk%3A6969","udp%3A%2F%2Fexodus.desync.com%3A6969"],"infoHash":"2a8c6ff5bc3bc5bfd480481ed0a2869069189ec1","infoHashBuffer":{"type":"Buffer","data":[42,140,111,245,188,59,197,191,212,128,72,30,208,162,134,144,105,24,158,193]},"announce":[],"urlList":[]}}